<mxfile host="drawio-plugin" modified="2022-08-21T14:55:46.986Z" agent="5.0 (Windows NT 6.2; Win64; x64) AppleWebKit/537.36 (KHTML, like Gecko) Chrome/98.0.4758.102 Safari/537.36" etag="rKAFIwAIQVmpeyrGWwwH" version="15.5.4" type="embed"><diagram id="h2tk3etqTs94xjGs8GxN" name="Pagina-1"><mxGraphModel dx="1335" dy="1602" grid="1" gridSize="10" guides="1" tooltips="1" connect="1" arrows="1" fold="1" page="1" pageScale="1" pageWidth="827" pageHeight="1169" math="0" shadow="0"><root><mxCell id="0"/><mxCell id="1" parent="0"/><mxCell id="jY7_FBdzDZRFW8272Pwl-1" value="&lt;font style=&quot;font-size: 20px;&quot;&gt;User&lt;/font&gt;" style="html=1;dashed=0;whitespace=wrap;" parent="1" vertex="1"><mxGeometry x="40" y="-90" width="160" height="70" as="geometry"/></mxCell><mxCell id="jY7_FBdzDZRFW8272Pwl-2" value="&lt;font style=&quot;font-size: 20px;&quot;&gt;Product Review&lt;/font&gt;" style="html=1;dashed=0;whitespace=wrap;" parent="1" vertex="1"><mxGeometry x="535" y="-380" width="160" height="70" as="geometry"/></mxCell><mxCell id="jY7_FBdzDZRFW8272Pwl-4" value="&lt;font style=&quot;font-size: 20px;&quot;&gt;Order&lt;/font&gt;" style="html=1;dashed=0;whitespace=wrap;" parent="1" vertex="1"><mxGeometry x="535" y="-90" width="160" height="70" as="geometry"/></mxCell><mxCell id="jY7_FBdzDZRFW8272Pwl-7" value="&lt;font style=&quot;font-size: 20px;&quot;&gt;Brand&lt;/font&gt;" style="html=1;dashed=0;whitespace=wrap;" parent="1" vertex="1"><mxGeometry x="1030" y="420" width="160" height="70" as="geometry"/></mxCell><mxCell id="jY7_FBdzDZRFW8272Pwl-8" value="&lt;font style=&quot;font-size: 20px;&quot;&gt;Product&lt;/font&gt;" style="html=1;dashed=0;whitespace=wrap;" parent="1" vertex="1"><mxGeometry x="1030" y="-90" width="160" height="70" as="geometry"/></mxCell><mxCell id="jY7_FBdzDZRFW8272Pwl-9" value="&lt;font style=&quot;font-size: 20px;&quot;&gt;Category&lt;/font&gt;" style="html=1;dashed=0;whitespace=wrap;" parent="1" vertex="1"><mxGeometry x="1580" y="-107.5" width="160" height="70" as="geometry"/></mxCell><mxCell id="jY7_FBdzDZRFW8272Pwl-11" value="&lt;font style=&quot;font-size: 20px;&quot;&gt;Shipment Address&lt;/font&gt;" style="html=1;dashed=0;whitespace=wrap;" parent="1" vertex="1"><mxGeometry x="-457" y="-110" width="175" height="70" as="geometry"/></mxCell><mxCell id="jY7_FBdzDZRFW8272Pwl-20" value="&lt;font style=&quot;font-size: 19px;&quot;&gt;name&lt;/font&gt;" style="ellipse;whiteSpace=wrap;html=1;fontSize=20;" parent="1" vertex="1"><mxGeometry x="130" y="-190" width="100" height="50" as="geometry"/></mxCell><mxCell id="jY7_FBdzDZRFW8272Pwl-21" value="&lt;font style=&quot;font-size: 19px;&quot;&gt;surname&lt;/font&gt;" style="ellipse;whiteSpace=wrap;html=1;fontSize=20;" parent="1" vertex="1"><mxGeometry x="205" y="-150" width="100" height="50" as="geometry"/></mxCell><mxCell id="jY7_FBdzDZRFW8272Pwl-22" value="&lt;font style=&quot;font-size: 19px;&quot;&gt;e-mail address&lt;/font&gt;" style="ellipse;whiteSpace=wrap;html=1;fontSize=20;fontStyle=4" parent="1" vertex="1"><mxGeometry x="160" y="5" width="120" height="65" as="geometry"/></mxCell><mxCell id="jY7_FBdzDZRFW8272Pwl-23" value="&lt;font style=&quot;font-size: 19px;&quot;&gt;phone number&lt;/font&gt;" style="ellipse;whiteSpace=wrap;html=1;fontSize=20;" parent="1" vertex="1"><mxGeometry y="20" width="110" height="60" as="geometry"/></mxCell><mxCell id="jY7_FBdzDZRFW8272Pwl-24" value="" style="endArrow=none;html=1;rounded=0;fontSize=20;exitX=0.25;exitY=1;exitDx=0;exitDy=0;entryX=0.697;entryY=0.034;entryDx=0;entryDy=0;entryPerimeter=0;" parent="1" source="jY7_FBdzDZRFW8272Pwl-1" target="jY7_FBdzDZRFW8272Pwl-23" edge="1"><mxGeometry width="50" height="50" relative="1" as="geometry"><mxPoint x="210" y="500" as="sourcePoint"/><mxPoint x="243.4000000000001" y="485.0999999999999" as="targetPoint"/></mxGeometry></mxCell><mxCell id="jY7_FBdzDZRFW8272Pwl-25" value="" style="endArrow=none;html=1;rounded=0;fontSize=20;exitX=0.75;exitY=0;exitDx=0;exitDy=0;entryX=0.5;entryY=1;entryDx=0;entryDy=0;" parent="1" source="jY7_FBdzDZRFW8272Pwl-1" target="jY7_FBdzDZRFW8272Pwl-20" edge="1"><mxGeometry width="50" height="50" relative="1" as="geometry"><mxPoint x="50" y="-10" as="sourcePoint"/><mxPoint x="46.67000000000007" y="22.039999999999964" as="targetPoint"/></mxGeometry></mxCell><mxCell id="jY7_FBdzDZRFW8272Pwl-26" value="" style="endArrow=none;html=1;rounded=0;fontSize=20;exitX=0.886;exitY=-0.016;exitDx=0;exitDy=0;entryX=0;entryY=1;entryDx=0;entryDy=0;exitPerimeter=0;" parent="1" source="jY7_FBdzDZRFW8272Pwl-1" target="jY7_FBdzDZRFW8272Pwl-21" edge="1"><mxGeometry width="50" height="50" relative="1" as="geometry"><mxPoint x="60" as="sourcePoint"/><mxPoint x="56.67000000000007" y="32.039999999999964" as="targetPoint"/></mxGeometry></mxCell><mxCell id="jY7_FBdzDZRFW8272Pwl-27" value="" style="endArrow=none;html=1;rounded=0;fontSize=20;exitX=0.75;exitY=1;exitDx=0;exitDy=0;entryX=0.5;entryY=0;entryDx=0;entryDy=0;" parent="1" source="jY7_FBdzDZRFW8272Pwl-1" target="jY7_FBdzDZRFW8272Pwl-22" edge="1"><mxGeometry width="50" height="50" relative="1" as="geometry"><mxPoint x="70" y="10" as="sourcePoint"/><mxPoint x="66.67000000000007" y="42.039999999999964" as="targetPoint"/></mxGeometry></mxCell><mxCell id="jY7_FBdzDZRFW8272Pwl-28" value="&lt;font style=&quot;font-size: 19px;&quot;&gt;text&lt;/font&gt;" style="ellipse;whiteSpace=wrap;html=1;fontSize=20;" parent="1" vertex="1"><mxGeometry x="512.5" y="-440" width="87.5" height="40" as="geometry"/></mxCell><mxCell id="jY7_FBdzDZRFW8272Pwl-29" value="" style="endArrow=none;html=1;rounded=0;fontSize=20;exitX=0.368;exitY=0.011;exitDx=0;exitDy=0;entryX=0.5;entryY=1;entryDx=0;entryDy=0;exitPerimeter=0;" parent="1" source="jY7_FBdzDZRFW8272Pwl-2" target="jY7_FBdzDZRFW8272Pwl-28" edge="1"><mxGeometry width="50" height="50" relative="1" as="geometry"><mxPoint x="600" y="-380" as="sourcePoint"/><mxPoint x="496.6700000000001" y="-257.96000000000004" as="targetPoint"/></mxGeometry></mxCell><mxCell id="jY7_FBdzDZRFW8272Pwl-30" value="&lt;font style=&quot;font-size: 19px;&quot;&gt;rating&lt;/font&gt;" style="ellipse;whiteSpace=wrap;html=1;fontSize=20;" parent="1" vertex="1"><mxGeometry x="670" y="-430" width="90" height="42.5" as="geometry"/></mxCell><mxCell id="jY7_FBdzDZRFW8272Pwl-31" value="" style="endArrow=none;html=1;rounded=0;fontSize=20;exitX=0.75;exitY=0;exitDx=0;exitDy=0;entryX=0;entryY=1;entryDx=0;entryDy=0;" parent="1" source="jY7_FBdzDZRFW8272Pwl-2" target="jY7_FBdzDZRFW8272Pwl-30" edge="1"><mxGeometry width="50" height="50" relative="1" as="geometry"><mxPoint x="600" y="-212.5" as="sourcePoint"/><mxPoint x="496.6700000000001" y="-90.46000000000004" as="targetPoint"/></mxGeometry></mxCell><mxCell id="jY7_FBdzDZRFW8272Pwl-32" value="&lt;font style=&quot;font-size: 19px;&quot;&gt;&lt;u&gt;product_name&lt;/u&gt;&lt;/font&gt;" style="ellipse;whiteSpace=wrap;html=1;fontSize=20;" parent="1" vertex="1"><mxGeometry x="1196.5" y="-160" width="133.5" height="65" as="geometry"/></mxCell><mxCell id="jY7_FBdzDZRFW8272Pwl-33" value="" style="endArrow=none;html=1;rounded=0;fontSize=20;exitX=0.924;exitY=-0.005;exitDx=0;exitDy=0;entryX=0;entryY=1;entryDx=0;entryDy=0;exitPerimeter=0;" parent="1" source="jY7_FBdzDZRFW8272Pwl-8" target="jY7_FBdzDZRFW8272Pwl-32" edge="1"><mxGeometry width="50" height="50" relative="1" as="geometry"><mxPoint x="1140" y="-80" as="sourcePoint"/><mxPoint x="1036.67" y="42.039999999999964" as="targetPoint"/></mxGeometry></mxCell><mxCell id="jY7_FBdzDZRFW8272Pwl-34" value="&lt;font style=&quot;font-size: 19px;&quot;&gt;price&lt;/font&gt;" style="ellipse;whiteSpace=wrap;html=1;fontSize=20;" parent="1" vertex="1"><mxGeometry x="951" y="-180" width="100" height="55" as="geometry"/></mxCell><mxCell id="jY7_FBdzDZRFW8272Pwl-35" value="" style="endArrow=none;html=1;rounded=0;fontSize=20;entryX=0.5;entryY=1;entryDx=0;entryDy=0;" parent="1" target="jY7_FBdzDZRFW8272Pwl-34" edge="1"><mxGeometry width="50" height="50" relative="1" as="geometry"><mxPoint x="1050" y="-90" as="sourcePoint"/><mxPoint x="946.6700000000001" y="42.039999999999964" as="targetPoint"/></mxGeometry></mxCell><mxCell id="jY7_FBdzDZRFW8272Pwl-36" value="&lt;font style=&quot;font-size: 19px;&quot;&gt;product&lt;br&gt;description&lt;/font&gt;" style="ellipse;whiteSpace=wrap;html=1;fontSize=20;" parent="1" vertex="1"><mxGeometry x="1120" y="50" width="120" height="70" as="geometry"/></mxCell><mxCell id="jY7_FBdzDZRFW8272Pwl-38" value="&lt;font style=&quot;font-size: 19px;&quot;&gt;quantity available&lt;/font&gt;" style="ellipse;whiteSpace=wrap;html=1;fontSize=20;" parent="1" vertex="1"><mxGeometry x="940" y="10" width="110" height="60" as="geometry"/></mxCell><mxCell id="jY7_FBdzDZRFW8272Pwl-39" value="" style="endArrow=none;html=1;rounded=0;fontSize=20;exitX=0.101;exitY=1.011;exitDx=0;exitDy=0;exitPerimeter=0;" parent="1" source="jY7_FBdzDZRFW8272Pwl-8" target="jY7_FBdzDZRFW8272Pwl-38" edge="1"><mxGeometry width="50" height="50" relative="1" as="geometry"><mxPoint x="1060" y="102.5" as="sourcePoint"/><mxPoint x="956.6700000000001" y="224.53999999999996" as="targetPoint"/></mxGeometry></mxCell><mxCell id="jY7_FBdzDZRFW8272Pwl-40" value="&lt;font style=&quot;font-size: 19px;&quot;&gt;&lt;u&gt;category name&lt;/u&gt;&lt;/font&gt;" style="ellipse;whiteSpace=wrap;html=1;fontSize=20;" parent="1" vertex="1"><mxGeometry x="1730" y="-180" width="110" height="60" as="geometry"/></mxCell><mxCell id="jY7_FBdzDZRFW8272Pwl-41" value="" style="endArrow=none;html=1;rounded=0;fontSize=20;entryX=0;entryY=1;entryDx=0;entryDy=0;exitX=0.75;exitY=0;exitDx=0;exitDy=0;" parent="1" source="jY7_FBdzDZRFW8272Pwl-9" target="jY7_FBdzDZRFW8272Pwl-40" edge="1"><mxGeometry width="50" height="50" relative="1" as="geometry"><mxPoint x="1620" y="-100" as="sourcePoint"/><mxPoint x="1516.67" y="32.039999999999964" as="targetPoint"/></mxGeometry></mxCell><mxCell id="jY7_FBdzDZRFW8272Pwl-42" value="&lt;span style=&quot;font-size: 19px;&quot;&gt;brand name&lt;/span&gt;" style="ellipse;whiteSpace=wrap;html=1;fontSize=20;" parent="1" vertex="1"><mxGeometry x="1130" y="510" width="120" height="70" as="geometry"/></mxCell><mxCell id="jY7_FBdzDZRFW8272Pwl-43" value="" style="endArrow=none;html=1;rounded=0;fontSize=20;exitX=0.75;exitY=1;exitDx=0;exitDy=0;entryX=0;entryY=0;entryDx=0;entryDy=0;" parent="1" target="jY7_FBdzDZRFW8272Pwl-42" edge="1"><mxGeometry width="50" height="50" relative="1" as="geometry"><mxPoint x="1130" y="490" as="sourcePoint"/><mxPoint x="1026.67" y="724.54" as="targetPoint"/></mxGeometry></mxCell><mxCell id="jY7_FBdzDZRFW8272Pwl-44" value="&lt;span style=&quot;font-size: 19px;&quot;&gt;&lt;u&gt;brand_code&lt;/u&gt;&lt;/span&gt;" style="ellipse;whiteSpace=wrap;html=1;fontSize=20;" parent="1" vertex="1"><mxGeometry x="1241" y="440" width="120" height="70" as="geometry"/></mxCell><mxCell id="jY7_FBdzDZRFW8272Pwl-45" value="" style="endArrow=none;html=1;rounded=0;fontSize=20;exitX=1;exitY=0.5;exitDx=0;exitDy=0;entryX=0;entryY=0.5;entryDx=0;entryDy=0;" parent="1" source="jY7_FBdzDZRFW8272Pwl-7" target="jY7_FBdzDZRFW8272Pwl-44" edge="1"><mxGeometry width="50" height="50" relative="1" as="geometry"><mxPoint x="1250" y="420" as="sourcePoint"/><mxPoint x="1146.67" y="654.54" as="targetPoint"/></mxGeometry></mxCell><mxCell id="jY7_FBdzDZRFW8272Pwl-46" value="&lt;span style=&quot;font-size: 19px;&quot;&gt;address&lt;/span&gt;" style="ellipse;whiteSpace=wrap;html=1;fontSize=20;" parent="1" vertex="1"><mxGeometry x="970" y="520" width="120" height="70" as="geometry"/></mxCell><mxCell id="jY7_FBdzDZRFW8272Pwl-47" value="" style="endArrow=none;html=1;rounded=0;fontSize=20;exitX=0.25;exitY=1;exitDx=0;exitDy=0;" parent="1" source="jY7_FBdzDZRFW8272Pwl-7" target="jY7_FBdzDZRFW8272Pwl-46" edge="1"><mxGeometry width="50" height="50" relative="1" as="geometry"><mxPoint x="910" y="535" as="sourcePoint"/><mxPoint x="866.6700000000001" y="734.54" as="targetPoint"/></mxGeometry></mxCell><mxCell id="jY7_FBdzDZRFW8272Pwl-48" value="&lt;span style=&quot;font-size: 19px;&quot;&gt;phone number&lt;/span&gt;" style="ellipse;whiteSpace=wrap;html=1;fontSize=20;" parent="1" vertex="1"><mxGeometry x="1201" y="330" width="120" height="70" as="geometry"/></mxCell><mxCell id="jY7_FBdzDZRFW8272Pwl-49" value="" style="endArrow=none;html=1;rounded=0;fontSize=20;exitX=0.75;exitY=0;exitDx=0;exitDy=0;entryX=0.038;entryY=0.733;entryDx=0;entryDy=0;entryPerimeter=0;" parent="1" source="jY7_FBdzDZRFW8272Pwl-7" target="jY7_FBdzDZRFW8272Pwl-48" edge="1"><mxGeometry width="50" height="50" relative="1" as="geometry"><mxPoint x="1150" y="345" as="sourcePoint"/><mxPoint x="1106.67" y="544.54" as="targetPoint"/></mxGeometry></mxCell><mxCell id="jY7_FBdzDZRFW8272Pwl-50" value="&lt;span style=&quot;font-size: 19px;&quot;&gt;e-mail&lt;br&gt;address&lt;br&gt;&lt;/span&gt;" style="ellipse;whiteSpace=wrap;html=1;fontSize=20;" parent="1" vertex="1"><mxGeometry x="841" y="360" width="129" height="70" as="geometry"/></mxCell><mxCell id="jY7_FBdzDZRFW8272Pwl-51" value="" style="endArrow=none;html=1;rounded=0;fontSize=20;exitX=-0.024;exitY=0.131;exitDx=0;exitDy=0;entryX=1;entryY=0.5;entryDx=0;entryDy=0;exitPerimeter=0;" parent="1" source="jY7_FBdzDZRFW8272Pwl-7" target="jY7_FBdzDZRFW8272Pwl-50" edge="1"><mxGeometry width="50" height="50" relative="1" as="geometry"><mxPoint x="1024.5" y="420" as="sourcePoint"/><mxPoint x="1100" y="390" as="targetPoint"/></mxGeometry></mxCell><mxCell id="jY7_FBdzDZRFW8272Pwl-52" value="&lt;span style=&quot;font-size: 19px;&quot;&gt;website&lt;/span&gt;" style="ellipse;whiteSpace=wrap;html=1;fontSize=20;" parent="1" vertex="1"><mxGeometry x="960" y="327.5" width="100" height="50" as="geometry"/></mxCell><mxCell id="jY7_FBdzDZRFW8272Pwl-53" value="" style="endArrow=none;html=1;rounded=0;fontSize=20;exitX=0.146;exitY=0.017;exitDx=0;exitDy=0;entryX=0.599;entryY=0.998;entryDx=0;entryDy=0;entryPerimeter=0;exitPerimeter=0;" parent="1" source="jY7_FBdzDZRFW8272Pwl-7" target="jY7_FBdzDZRFW8272Pwl-52" edge="1"><mxGeometry width="50" height="50" relative="1" as="geometry"><mxPoint x="880" y="410" as="sourcePoint"/><mxPoint x="836.6700000000001" y="534.54" as="targetPoint"/></mxGeometry></mxCell><mxCell id="jY7_FBdzDZRFW8272Pwl-54" value="&lt;font style=&quot;font-size: 19px;&quot;&gt;address&lt;/font&gt;" style="ellipse;whiteSpace=wrap;html=1;fontSize=20;fontStyle=4" parent="1" vertex="1"><mxGeometry x="-517" y="-190" width="100" height="50" as="geometry"/></mxCell><mxCell id="jY7_FBdzDZRFW8272Pwl-55" value="" style="endArrow=none;html=1;rounded=0;fontSize=20;entryX=0.5;entryY=1;entryDx=0;entryDy=0;" parent="1" target="jY7_FBdzDZRFW8272Pwl-54" edge="1"><mxGeometry width="50" height="50" relative="1" as="geometry"><mxPoint x="-440" y="-110" as="sourcePoint"/><mxPoint x="-460.3299999999999" y="22.039999999999964" as="targetPoint"/></mxGeometry></mxCell><mxCell id="jY7_FBdzDZRFW8272Pwl-56" value="&lt;font style=&quot;font-size: 19px;&quot;&gt;city&lt;/font&gt;" style="ellipse;whiteSpace=wrap;html=1;fontSize=20;fontStyle=4" parent="1" vertex="1"><mxGeometry x="-407" y="-190" width="100" height="50" as="geometry"/></mxCell><mxCell id="jY7_FBdzDZRFW8272Pwl-57" value="" style="endArrow=none;html=1;rounded=0;fontSize=20;exitX=0.5;exitY=0;exitDx=0;exitDy=0;entryX=0.5;entryY=1;entryDx=0;entryDy=0;" parent="1" source="jY7_FBdzDZRFW8272Pwl-11" target="jY7_FBdzDZRFW8272Pwl-56" edge="1"><mxGeometry width="50" height="50" relative="1" as="geometry"><mxPoint x="-317" y="-90.00000000000023" as="sourcePoint"/><mxPoint x="-350.3299999999999" y="22.039999999999964" as="targetPoint"/></mxGeometry></mxCell><mxCell id="jY7_FBdzDZRFW8272Pwl-58" value="&lt;font style=&quot;font-size: 19px;&quot;&gt;province&lt;/font&gt;" style="ellipse;whiteSpace=wrap;html=1;fontSize=20;" parent="1" vertex="1"><mxGeometry x="-590" y="-135" width="100" height="50" as="geometry"/></mxCell><mxCell id="jY7_FBdzDZRFW8272Pwl-59" value="" style="endArrow=none;html=1;rounded=0;fontSize=20;exitX=-0.005;exitY=0.359;exitDx=0;exitDy=0;exitPerimeter=0;entryX=1;entryY=1;entryDx=0;entryDy=0;" parent="1" source="jY7_FBdzDZRFW8272Pwl-11" target="jY7_FBdzDZRFW8272Pwl-58" edge="1"><mxGeometry width="50" height="50" relative="1" as="geometry"><mxPoint x="-552.5" y="-35.00000000000023" as="sourcePoint"/><mxPoint x="-487" y="-80" as="targetPoint"/></mxGeometry></mxCell><mxCell id="jY7_FBdzDZRFW8272Pwl-60" value="&lt;font style=&quot;font-size: 19px;&quot;&gt;&lt;u&gt;country&lt;/u&gt;&lt;/font&gt;" style="ellipse;whiteSpace=wrap;html=1;fontSize=20;" parent="1" vertex="1"><mxGeometry x="-577" y="-60.13" width="100" height="50" as="geometry"/></mxCell><mxCell id="jY7_FBdzDZRFW8272Pwl-61" value="" style="endArrow=none;html=1;rounded=0;fontSize=20;exitX=0;exitY=0.75;exitDx=0;exitDy=0;entryX=1;entryY=0.5;entryDx=0;entryDy=0;" parent="1" source="jY7_FBdzDZRFW8272Pwl-11" target="jY7_FBdzDZRFW8272Pwl-60" edge="1"><mxGeometry width="50" height="50" relative="1" as="geometry"><mxPoint x="-444.8749999999998" y="9.99999999999988" as="sourcePoint"/><mxPoint x="-474" y="-5.130000000000003" as="targetPoint"/></mxGeometry></mxCell><mxCell id="jY7_FBdzDZRFW8272Pwl-62" value="&lt;font style=&quot;font-size: 19px;&quot;&gt;postal code&lt;/font&gt;" style="ellipse;whiteSpace=wrap;html=1;fontSize=20;" parent="1" vertex="1"><mxGeometry x="-467" y="-15" width="120" height="55" as="geometry"/></mxCell><mxCell id="jY7_FBdzDZRFW8272Pwl-63" value="" style="endArrow=none;html=1;rounded=0;fontSize=20;entryX=0.5;entryY=0;entryDx=0;entryDy=0;exitX=0.5;exitY=1;exitDx=0;exitDy=0;" parent="1" source="jY7_FBdzDZRFW8272Pwl-11" target="jY7_FBdzDZRFW8272Pwl-62" edge="1"><mxGeometry width="50" height="50" relative="1" as="geometry"><mxPoint x="-380" y="-20" as="sourcePoint"/><mxPoint x="-384" y="24.999999999999996" as="targetPoint"/></mxGeometry></mxCell><mxCell id="jY7_FBdzDZRFW8272Pwl-64" value="&lt;font style=&quot;font-size: 19px;&quot;&gt;&lt;u&gt;order code&lt;/u&gt;&lt;/font&gt;" style="ellipse;whiteSpace=wrap;html=1;fontSize=20;" parent="1" vertex="1"><mxGeometry x="492.5" y="-190" width="120" height="65" as="geometry"/></mxCell><mxCell id="jY7_FBdzDZRFW8272Pwl-65" value="" style="endArrow=none;html=1;rounded=0;fontSize=20;exitX=0.25;exitY=0;exitDx=0;exitDy=0;" parent="1" source="jY7_FBdzDZRFW8272Pwl-4" target="jY7_FBdzDZRFW8272Pwl-64" edge="1"><mxGeometry width="50" height="50" relative="1" as="geometry"><mxPoint x="522.5" y="-65" as="sourcePoint"/><mxPoint x="387.5" y="-80" as="targetPoint"/></mxGeometry></mxCell><mxCell id="jY7_FBdzDZRFW8272Pwl-82" value="&lt;font style=&quot;font-size: 19px;&quot;&gt;progress status&lt;/font&gt;" style="ellipse;whiteSpace=wrap;html=1;fontSize=20;" parent="1" vertex="1"><mxGeometry x="652.5" y="30" width="120" height="65" as="geometry"/></mxCell><mxCell id="jY7_FBdzDZRFW8272Pwl-83" value="" style="endArrow=none;html=1;rounded=0;fontSize=20;exitX=0.75;exitY=1;exitDx=0;exitDy=0;entryX=0.093;entryY=0.2;entryDx=0;entryDy=0;entryPerimeter=0;" parent="1" source="jY7_FBdzDZRFW8272Pwl-4" target="jY7_FBdzDZRFW8272Pwl-82" edge="1"><mxGeometry width="50" height="50" relative="1" as="geometry"><mxPoint x="670" y="216.25" as="sourcePoint"/><mxPoint x="637.0262247113337" y="283.5693963754261" as="targetPoint"/></mxGeometry></mxCell><mxCell id="gBu2YltLKyA2vqqV_IaL-1" value="&lt;font style=&quot;font-size: 19px;&quot;&gt;category&lt;br&gt;description&lt;/font&gt;" style="ellipse;whiteSpace=wrap;html=1;fontSize=20;" parent="1" vertex="1"><mxGeometry x="1710" y="-22.5" width="120" height="70" as="geometry"/></mxCell><mxCell id="gBu2YltLKyA2vqqV_IaL-2" value="" style="endArrow=none;html=1;rounded=0;fontSize=20;entryX=0;entryY=0;entryDx=0;entryDy=0;exitX=0.75;exitY=1;exitDx=0;exitDy=0;" parent="1" source="jY7_FBdzDZRFW8272Pwl-9" target="gBu2YltLKyA2vqqV_IaL-1" edge="1"><mxGeometry width="50" height="50" relative="1" as="geometry"><mxPoint x="1630" y="-30" as="sourcePoint"/><mxPoint x="1546.67" y="214.53999999999996" as="targetPoint"/></mxGeometry></mxCell><mxCell id="gBu2YltLKyA2vqqV_IaL-3" value="&lt;font style=&quot;font-size: 19px;&quot;&gt;password&lt;/font&gt;" style="ellipse;whiteSpace=wrap;html=1;fontSize=20;" parent="1" vertex="1"><mxGeometry x="-60" y="-170" width="110" height="50" as="geometry"/></mxCell><mxCell id="gBu2YltLKyA2vqqV_IaL-4" value="" style="endArrow=none;html=1;rounded=0;fontSize=20;exitX=0.25;exitY=0;exitDx=0;exitDy=0;entryX=1;entryY=1;entryDx=0;entryDy=0;" parent="1" source="jY7_FBdzDZRFW8272Pwl-1" target="gBu2YltLKyA2vqqV_IaL-3" edge="1"><mxGeometry width="50" height="50" relative="1" as="geometry"><mxPoint x="-10" y="-40" as="sourcePoint"/><mxPoint x="-43.32999999999993" y="72.03999999999996" as="targetPoint"/></mxGeometry></mxCell><mxCell id="gBu2YltLKyA2vqqV_IaL-10" value="&lt;font style=&quot;font-size: 20px;&quot;&gt;places&lt;/font&gt;" style="shape=rhombus;perimeter=rhombusPerimeter;whiteSpace=wrap;html=1;align=center;" parent="1" vertex="1"><mxGeometry x="285" y="-86.25" width="137.5" height="62.5" as="geometry"/></mxCell><mxCell id="gBu2YltLKyA2vqqV_IaL-11" value="" style="endArrow=none;html=1;rounded=0;fontSize=20;entryX=1;entryY=0.5;entryDx=0;entryDy=0;exitX=0;exitY=0.5;exitDx=0;exitDy=0;" parent="1" source="gBu2YltLKyA2vqqV_IaL-10" target="jY7_FBdzDZRFW8272Pwl-1" edge="1"><mxGeometry width="50" height="50" relative="1" as="geometry"><mxPoint x="100" y="110" as="sourcePoint"/><mxPoint x="150" y="60" as="targetPoint"/></mxGeometry></mxCell><mxCell id="gBu2YltLKyA2vqqV_IaL-12" value="" style="endArrow=none;html=1;rounded=0;fontSize=20;entryX=1;entryY=0.5;entryDx=0;entryDy=0;exitX=0;exitY=0.5;exitDx=0;exitDy=0;" parent="1" source="jY7_FBdzDZRFW8272Pwl-4" target="gBu2YltLKyA2vqqV_IaL-10" edge="1"><mxGeometry width="50" height="50" relative="1" as="geometry"><mxPoint x="330.0000000000002" y="253.75" as="sourcePoint"/><mxPoint x="330.0000000000002" y="88.75" as="targetPoint"/></mxGeometry></mxCell><mxCell id="gBu2YltLKyA2vqqV_IaL-13" value="&lt;font style=&quot;font-size: 20px;&quot;&gt;contains&lt;/font&gt;" style="shape=rhombus;perimeter=rhombusPerimeter;whiteSpace=wrap;html=1;align=center;" parent="1" vertex="1"><mxGeometry x="781" y="-98.75" width="170" height="90" as="geometry"/></mxCell><mxCell id="gBu2YltLKyA2vqqV_IaL-14" value="" style="endArrow=none;html=1;rounded=0;fontSize=20;entryX=1;entryY=0.5;entryDx=0;entryDy=0;exitX=0;exitY=0.5;exitDx=0;exitDy=0;" parent="1" source="gBu2YltLKyA2vqqV_IaL-13" target="jY7_FBdzDZRFW8272Pwl-4" edge="1"><mxGeometry width="50" height="50" relative="1" as="geometry"><mxPoint x="1095" y="-405.53" as="sourcePoint"/><mxPoint x="730" y="-405.53" as="targetPoint"/><Array as="points"/></mxGeometry></mxCell><mxCell id="gBu2YltLKyA2vqqV_IaL-15" value="" style="endArrow=none;html=1;rounded=0;fontSize=20;entryX=1;entryY=0.5;entryDx=0;entryDy=0;exitX=0;exitY=0.5;exitDx=0;exitDy=0;" parent="1" source="jY7_FBdzDZRFW8272Pwl-8" target="gBu2YltLKyA2vqqV_IaL-13" edge="1"><mxGeometry width="50" height="50" relative="1" as="geometry"><mxPoint x="1110.0000000000005" y="-195.00000000000045" as="sourcePoint"/><mxPoint x="1110.0000000000005" y="-360" as="targetPoint"/></mxGeometry></mxCell><mxCell id="gBu2YltLKyA2vqqV_IaL-16" value="&lt;font style=&quot;font-size: 20px;&quot;&gt;belongs to&lt;/font&gt;" style="shape=rhombus;perimeter=rhombusPerimeter;whiteSpace=wrap;html=1;align=center;" parent="1" vertex="1"><mxGeometry x="1310" y="-110" width="150" height="75" as="geometry"/></mxCell><mxCell id="gBu2YltLKyA2vqqV_IaL-17" value="" style="endArrow=none;html=1;rounded=0;fontSize=20;exitX=0;exitY=0.5;exitDx=0;exitDy=0;" parent="1" source="gBu2YltLKyA2vqqV_IaL-16" edge="1"><mxGeometry width="50" height="50" relative="1" as="geometry"><mxPoint x="1445" y="-349.47" as="sourcePoint"/><mxPoint x="1190" y="-72" as="targetPoint"/></mxGeometry></mxCell><mxCell id="gBu2YltLKyA2vqqV_IaL-18" value="" style="endArrow=none;html=1;rounded=0;fontSize=20;entryX=1;entryY=0.5;entryDx=0;entryDy=0;exitX=0;exitY=0.5;exitDx=0;exitDy=0;" parent="1" source="jY7_FBdzDZRFW8272Pwl-9" target="gBu2YltLKyA2vqqV_IaL-16" edge="1"><mxGeometry width="50" height="50" relative="1" as="geometry"><mxPoint x="1320" y="-55" as="sourcePoint"/><mxPoint x="1200" y="-55" as="targetPoint"/></mxGeometry></mxCell><mxCell id="gBu2YltLKyA2vqqV_IaL-19" value="" style="endArrow=none;html=1;rounded=0;fontSize=20;entryX=0.5;entryY=1;entryDx=0;entryDy=0;exitX=0.5;exitY=0;exitDx=0;exitDy=0;" parent="1" source="95bkAQWqYfKbXMDTL2cX-9" target="jY7_FBdzDZRFW8272Pwl-8" edge="1"><mxGeometry width="50" height="50" relative="1" as="geometry"><mxPoint x="1109" y="170" as="sourcePoint"/><mxPoint x="1109.0000000000005" y="-10" as="targetPoint"/></mxGeometry></mxCell><mxCell id="gBu2YltLKyA2vqqV_IaL-20" value="&lt;font style=&quot;font-size: 20px;&quot;&gt;produced by&lt;/font&gt;" style="shape=rhombus;perimeter=rhombusPerimeter;whiteSpace=wrap;html=1;align=center;" parent="1" vertex="1"><mxGeometry x="1022.5" y="145" width="175" height="95" as="geometry"/></mxCell><mxCell id="gBu2YltLKyA2vqqV_IaL-21" value="" style="endArrow=none;html=1;rounded=0;fontSize=20;exitX=0.5;exitY=0;exitDx=0;exitDy=0;entryX=0.5;entryY=1;entryDx=0;entryDy=0;" parent="1" source="jY7_FBdzDZRFW8272Pwl-7" target="95bkAQWqYfKbXMDTL2cX-9" edge="1"><mxGeometry width="50" height="50" relative="1" as="geometry"><mxPoint x="1111" y="400" as="sourcePoint"/><mxPoint x="1110" y="240" as="targetPoint"/></mxGeometry></mxCell><mxCell id="gBu2YltLKyA2vqqV_IaL-32" value="&lt;font style=&quot;font-size: 20px;&quot;&gt;owns&lt;/font&gt;" style="shape=rhombus;perimeter=rhombusPerimeter;whiteSpace=wrap;html=1;align=center;" parent="1" vertex="1"><mxGeometry x="-200" y="-115" width="130" height="65" as="geometry"/></mxCell><mxCell id="gBu2YltLKyA2vqqV_IaL-33" value="" style="endArrow=none;html=1;rounded=0;fontSize=20;exitX=0;exitY=0.5;exitDx=0;exitDy=0;" parent="1" source="gBu2YltLKyA2vqqV_IaL-32" edge="1"><mxGeometry width="50" height="50" relative="1" as="geometry"><mxPoint x="-210" y="-20" as="sourcePoint"/><mxPoint x="-280" y="-82" as="targetPoint"/></mxGeometry></mxCell><mxCell id="gBu2YltLKyA2vqqV_IaL-34" value="" style="endArrow=none;html=1;rounded=0;fontSize=20;entryX=1;entryY=0.5;entryDx=0;entryDy=0;" parent="1" target="gBu2YltLKyA2vqqV_IaL-32" edge="1"><mxGeometry width="50" height="50" relative="1" as="geometry"><mxPoint x="40" y="-82" as="sourcePoint"/><mxPoint x="-272" y="-65" as="targetPoint"/></mxGeometry></mxCell><mxCell id="mH6s5tYYB3kWL35VJlXF-1" value="&lt;font style=&quot;font-size: 19px;&quot;&gt;quantity&lt;/font&gt;" style="ellipse;whiteSpace=wrap;html=1;fontSize=20;" parent="1" vertex="1"><mxGeometry x="727" y="-170" width="100" height="55" as="geometry"/></mxCell><mxCell id="mH6s5tYYB3kWL35VJlXF-2" value="" style="endArrow=none;html=1;rounded=0;fontSize=20;entryX=1;entryY=1;entryDx=0;entryDy=0;exitX=0.339;exitY=0.14;exitDx=0;exitDy=0;exitPerimeter=0;" parent="1" source="gBu2YltLKyA2vqqV_IaL-13" target="mH6s5tYYB3kWL35VJlXF-1" edge="1"><mxGeometry width="50" height="50" relative="1" as="geometry"><mxPoint x="790" y="-100" as="sourcePoint"/><mxPoint x="705.5300000000001" y="42.039999999999964" as="targetPoint"/></mxGeometry></mxCell><mxCell id="mH6s5tYYB3kWL35VJlXF-14" value="&lt;font style=&quot;font-size: 20px;&quot;&gt;writes&lt;/font&gt;" style="shape=rhombus;perimeter=rhombusPerimeter;whiteSpace=wrap;html=1;align=center;" parent="1" vertex="1"><mxGeometry x="280" y="-385" width="149" height="80" as="geometry"/></mxCell><mxCell id="mH6s5tYYB3kWL35VJlXF-15" value="" style="endArrow=none;html=1;rounded=0;fontSize=20;exitX=0;exitY=0.5;exitDx=0;exitDy=0;" parent="1" source="jY7_FBdzDZRFW8272Pwl-2" edge="1"><mxGeometry width="50" height="50" relative="1" as="geometry"><mxPoint x="510" y="-45" as="sourcePoint"/><mxPoint x="430" y="-345" as="targetPoint"/></mxGeometry></mxCell><mxCell id="mH6s5tYYB3kWL35VJlXF-17" value="" style="endArrow=none;html=1;rounded=0;fontSize=20;exitX=0;exitY=0.5;exitDx=0;exitDy=0;entryX=0.5;entryY=0;entryDx=0;entryDy=0;" parent="1" source="mH6s5tYYB3kWL35VJlXF-14" target="jY7_FBdzDZRFW8272Pwl-1" edge="1"><mxGeometry width="50" height="50" relative="1" as="geometry"><mxPoint x="240" y="-345.56" as="sourcePoint"/><mxPoint x="120" y="-230" as="targetPoint"/><Array as="points"><mxPoint x="120" y="-345"/></Array></mxGeometry></mxCell><mxCell id="mH6s5tYYB3kWL35VJlXF-18" value="&lt;span style=&quot;font-size: 20px;&quot;&gt;reviews&lt;/span&gt;" style="shape=rhombus;perimeter=rhombusPerimeter;whiteSpace=wrap;html=1;align=center;" parent="1" vertex="1"><mxGeometry x="821" y="-385" width="149" height="80" as="geometry"/></mxCell><mxCell id="mH6s5tYYB3kWL35VJlXF-19" value="" style="endArrow=none;html=1;rounded=0;fontSize=20;entryX=1;entryY=0.5;entryDx=0;entryDy=0;" parent="1" target="jY7_FBdzDZRFW8272Pwl-2" edge="1"><mxGeometry width="50" height="50" relative="1" as="geometry"><mxPoint x="820" y="-345" as="sourcePoint"/><mxPoint x="440" y="-335" as="targetPoint"/></mxGeometry></mxCell><mxCell id="mH6s5tYYB3kWL35VJlXF-20" value="" style="endArrow=none;html=1;rounded=0;fontSize=20;entryX=1;entryY=0.5;entryDx=0;entryDy=0;exitX=0.5;exitY=0;exitDx=0;exitDy=0;" parent="1" source="jY7_FBdzDZRFW8272Pwl-8" target="mH6s5tYYB3kWL35VJlXF-18" edge="1"><mxGeometry width="50" height="50" relative="1" as="geometry"><mxPoint x="830" y="-335" as="sourcePoint"/><mxPoint x="670" y="-335" as="targetPoint"/><Array as="points"><mxPoint x="1110" y="-345"/></Array></mxGeometry></mxCell><mxCell id="mH6s5tYYB3kWL35VJlXF-21" value="&lt;font style=&quot;font-size: 20px;&quot;&gt;Payment Method&lt;/font&gt;" style="html=1;dashed=0;whitespace=wrap;direction=west;" parent="1" vertex="1"><mxGeometry x="32.5" y="246.25" width="175" height="70" as="geometry"/></mxCell><mxCell id="mH6s5tYYB3kWL35VJlXF-22" value="&lt;font style=&quot;font-size: 20px;&quot;&gt;pays by&lt;/font&gt;" style="shape=rhombus;perimeter=rhombusPerimeter;whiteSpace=wrap;html=1;align=center;" parent="1" vertex="1"><mxGeometry x="55" y="95" width="130" height="70" as="geometry"/></mxCell><mxCell id="mH6s5tYYB3kWL35VJlXF-23" value="" style="endArrow=none;html=1;rounded=0;fontSize=20;entryX=0.5;entryY=0;entryDx=0;entryDy=0;exitX=0.5;exitY=1;exitDx=0;exitDy=0;" parent="1" source="jY7_FBdzDZRFW8272Pwl-1" target="mH6s5tYYB3kWL35VJlXF-22" edge="1"><mxGeometry width="50" height="50" relative="1" as="geometry"><mxPoint x="40" y="-40" as="sourcePoint"/><mxPoint x="-50" y="-35.72" as="targetPoint"/></mxGeometry></mxCell><mxCell id="mH6s5tYYB3kWL35VJlXF-24" value="" style="endArrow=none;html=1;rounded=0;fontSize=20;exitX=0.5;exitY=1;exitDx=0;exitDy=0;entryX=0.5;entryY=1;entryDx=0;entryDy=0;" parent="1" source="mH6s5tYYB3kWL35VJlXF-22" target="mH6s5tYYB3kWL35VJlXF-21" edge="1"><mxGeometry width="50" height="50" relative="1" as="geometry"><mxPoint x="-75" y="177.5" as="sourcePoint"/><mxPoint x="-280" y="200" as="targetPoint"/><Array as="points"/></mxGeometry></mxCell><mxCell id="mH6s5tYYB3kWL35VJlXF-25" value="&lt;font style=&quot;font-size: 19px;&quot;&gt;type&lt;/font&gt;" style="ellipse;whiteSpace=wrap;html=1;fontSize=20;" parent="1" vertex="1"><mxGeometry x="-90" y="300" width="90" height="40" as="geometry"/></mxCell><mxCell id="mH6s5tYYB3kWL35VJlXF-26" value="" style="endArrow=none;html=1;rounded=0;fontSize=20;entryX=1;entryY=0;entryDx=0;entryDy=0;exitX=1;exitY=0.5;exitDx=0;exitDy=0;" parent="1" source="mH6s5tYYB3kWL35VJlXF-21" target="mH6s5tYYB3kWL35VJlXF-25" edge="1"><mxGeometry width="50" height="50" relative="1" as="geometry"><mxPoint x="-152.5" y="320" as="sourcePoint"/><mxPoint x="-167" y="385" as="targetPoint"/></mxGeometry></mxCell><mxCell id="mH6s5tYYB3kWL35VJlXF-27" value="&lt;font style=&quot;font-size: 19px;&quot;&gt;credentials&lt;/font&gt;" style="ellipse;whiteSpace=wrap;html=1;fontSize=20;" parent="1" vertex="1"><mxGeometry x="-10" y="340" width="110" height="50" as="geometry"/></mxCell><mxCell id="mH6s5tYYB3kWL35VJlXF-28" value="" style="endArrow=none;html=1;rounded=0;fontSize=20;entryX=0.5;entryY=0;entryDx=0;entryDy=0;exitX=0.75;exitY=0;exitDx=0;exitDy=0;" parent="1" source="mH6s5tYYB3kWL35VJlXF-21" target="mH6s5tYYB3kWL35VJlXF-27" edge="1"><mxGeometry width="50" height="50" relative="1" as="geometry"><mxPoint x="-90" y="320" as="sourcePoint"/><mxPoint x="-190" y="355" as="targetPoint"/></mxGeometry></mxCell><mxCell id="mH6s5tYYB3kWL35VJlXF-29" value="&lt;font style=&quot;font-size: 19px;&quot;&gt;validity&lt;/font&gt;" style="ellipse;whiteSpace=wrap;html=1;fontSize=20;" parent="1" vertex="1"><mxGeometry x="163.5" y="340" width="113" height="50" as="geometry"/></mxCell><mxCell id="mH6s5tYYB3kWL35VJlXF-30" value="" style="endArrow=none;html=1;rounded=0;fontSize=20;entryX=0.288;entryY=0.035;entryDx=0;entryDy=0;exitX=0.25;exitY=0;exitDx=0;exitDy=0;entryPerimeter=0;" parent="1" source="mH6s5tYYB3kWL35VJlXF-21" target="mH6s5tYYB3kWL35VJlXF-29" edge="1"><mxGeometry width="50" height="50" relative="1" as="geometry"><mxPoint x="-392.5" y="250" as="sourcePoint"/><mxPoint x="-440" y="275" as="targetPoint"/></mxGeometry></mxCell><mxCell id="mH6s5tYYB3kWL35VJlXF-33" value="&lt;font style=&quot;font-size: 20px;&quot;&gt;Product Variant&lt;/font&gt;" style="html=1;dashed=0;whitespace=wrap;" parent="1" vertex="1"><mxGeometry x="1580" y="-301.24" width="160" height="70" as="geometry"/></mxCell><mxCell id="mH6s5tYYB3kWL35VJlXF-34" value="&lt;font style=&quot;font-size: 20px;&quot;&gt;available in&lt;/font&gt;" style="shape=rhombus;perimeter=rhombusPerimeter;whiteSpace=wrap;html=1;align=center;" parent="1" vertex="1"><mxGeometry x="1310" y="-305.62" width="160" height="78.75" as="geometry"/></mxCell><mxCell id="mH6s5tYYB3kWL35VJlXF-35" value="" style="endArrow=none;html=1;rounded=0;fontSize=20;entryX=1;entryY=0.5;entryDx=0;entryDy=0;exitX=0;exitY=0.5;exitDx=0;exitDy=0;" parent="1" source="95bkAQWqYfKbXMDTL2cX-6" target="95bkAQWqYfKbXMDTL2cX-8" edge="1"><mxGeometry width="50" height="50" relative="1" as="geometry"><mxPoint x="1319.9999999999995" y="-45" as="sourcePoint"/><mxPoint x="1199.9999999999995" y="-45" as="targetPoint"/></mxGeometry></mxCell><mxCell id="mH6s5tYYB3kWL35VJlXF-36" value="" style="endArrow=none;html=1;rounded=0;fontSize=20;entryX=0.598;entryY=-0.021;entryDx=0;entryDy=0;exitX=0;exitY=0.5;exitDx=0;exitDy=0;entryPerimeter=0;" parent="1" source="95bkAQWqYfKbXMDTL2cX-8" target="jY7_FBdzDZRFW8272Pwl-8" edge="1"><mxGeometry width="50" height="50" relative="1" as="geometry"><mxPoint x="1550" y="-256.25" as="sourcePoint"/><mxPoint x="1479.9999999999995" y="-256.2449999999999" as="targetPoint"/><Array as="points"><mxPoint x="1126" y="-266"/></Array></mxGeometry></mxCell><mxCell id="QcuihTfElGusrErA9jko-1" value="&lt;font style=&quot;font-size: 20px;&quot;&gt;Discount&lt;/font&gt;" style="html=1;dashed=0;whitespace=wrap;" parent="1" vertex="1"><mxGeometry x="1590" y="140" width="160" height="70" as="geometry"/></mxCell><mxCell id="QcuihTfElGusrErA9jko-2" value="&lt;font style=&quot;font-size: 19px;&quot;&gt;&lt;u&gt;discount_code&lt;/u&gt;&lt;/font&gt;" style="ellipse;whiteSpace=wrap;html=1;fontSize=20;" parent="1" vertex="1"><mxGeometry x="1510" y="60" width="150" height="60" as="geometry"/></mxCell><mxCell id="QcuihTfElGusrErA9jko-3" value="" style="endArrow=none;html=1;rounded=0;fontSize=20;entryX=0.557;entryY=0.997;entryDx=0;entryDy=0;entryPerimeter=0;exitX=0.25;exitY=0;exitDx=0;exitDy=0;" parent="1" source="QcuihTfElGusrErA9jko-1" target="QcuihTfElGusrErA9jko-2" edge="1"><mxGeometry width="50" height="50" relative="1" as="geometry"><mxPoint x="1660.0000000000005" y="140" as="sourcePoint"/><mxPoint x="1556.67" y="272.03999999999996" as="targetPoint"/></mxGeometry></mxCell><mxCell id="QcuihTfElGusrErA9jko-4" value="&lt;font style=&quot;font-size: 19px;&quot;&gt;description&lt;/font&gt;" style="ellipse;whiteSpace=wrap;html=1;fontSize=20;" parent="1" vertex="1"><mxGeometry x="1690" y="70" width="120" height="50" as="geometry"/></mxCell><mxCell id="QcuihTfElGusrErA9jko-5" value="" style="endArrow=none;html=1;rounded=0;fontSize=20;" parent="1" target="QcuihTfElGusrErA9jko-4" edge="1"><mxGeometry width="50" height="50" relative="1" as="geometry"><mxPoint x="1720" y="140" as="sourcePoint"/><mxPoint x="1586.67" y="454.53999999999996" as="targetPoint"/></mxGeometry></mxCell><mxCell id="QcuihTfElGusrErA9jko-6" value="" style="endArrow=none;html=1;rounded=0;fontSize=20;exitX=0.643;exitY=1.01;exitDx=0;exitDy=0;exitPerimeter=0;entryX=0.177;entryY=0.121;entryDx=0;entryDy=0;entryPerimeter=0;" parent="1" source="jY7_FBdzDZRFW8272Pwl-8" target="jY7_FBdzDZRFW8272Pwl-36" edge="1"><mxGeometry width="50" height="50" relative="1" as="geometry"><mxPoint x="1150" y="102.5" as="sourcePoint"/><mxPoint x="1160" y="40" as="targetPoint"/></mxGeometry></mxCell><mxCell id="QcuihTfElGusrErA9jko-7" value="&lt;font style=&quot;font-size: 20px;&quot;&gt;discounted by&lt;/font&gt;" style="shape=rhombus;perimeter=rhombusPerimeter;whiteSpace=wrap;html=1;align=center;" parent="1" vertex="1"><mxGeometry x="1305" y="132.5" width="160" height="85" as="geometry"/></mxCell><mxCell id="QcuihTfElGusrErA9jko-8" value="" style="endArrow=none;html=1;rounded=0;fontSize=20;entryX=1.002;entryY=0.84;entryDx=0;entryDy=0;exitX=0.5;exitY=0;exitDx=0;exitDy=0;entryPerimeter=0;" parent="1" source="QcuihTfElGusrErA9jko-7" target="jY7_FBdzDZRFW8272Pwl-8" edge="1"><mxGeometry width="50" height="50" relative="1" as="geometry"><mxPoint x="1319.9999999999995" y="-45" as="sourcePoint"/><mxPoint x="1200" y="-45" as="targetPoint"/><Array as="points"><mxPoint x="1385" y="-30"/></Array></mxGeometry></mxCell><mxCell id="QcuihTfElGusrErA9jko-10" value="" style="endArrow=none;html=1;rounded=0;fontSize=20;entryX=1;entryY=0.5;entryDx=0;entryDy=0;exitX=0;exitY=0.5;exitDx=0;exitDy=0;" parent="1" source="QcuihTfElGusrErA9jko-1" target="QcuihTfElGusrErA9jko-7" edge="1"><mxGeometry width="50" height="50" relative="1" as="geometry"><mxPoint x="1590" y="-62.5" as="sourcePoint"/><mxPoint x="1470" y="-62.5" as="targetPoint"/></mxGeometry></mxCell><mxCell id="QcuihTfElGusrErA9jko-13" value="&lt;font style=&quot;font-size: 19px;&quot;&gt;percentage&lt;/font&gt;" style="ellipse;whiteSpace=wrap;html=1;fontSize=20;" parent="1" vertex="1"><mxGeometry x="1520" y="236.25" width="120" height="50" as="geometry"/></mxCell><mxCell id="QcuihTfElGusrErA9jko-14" value="" style="endArrow=none;html=1;rounded=0;fontSize=20;exitX=0.75;exitY=1;exitDx=0;exitDy=0;" parent="1" target="QcuihTfElGusrErA9jko-13" edge="1"><mxGeometry width="50" height="50" relative="1" as="geometry"><mxPoint x="1640" y="210.00000000000023" as="sourcePoint"/><mxPoint x="1516.67" y="602.04" as="targetPoint"/></mxGeometry></mxCell><mxCell id="QcuihTfElGusrErA9jko-15" value="&lt;font style=&quot;font-size: 19px;&quot;&gt;expiration date&lt;/font&gt;" style="ellipse;whiteSpace=wrap;html=1;fontSize=20;" parent="1" vertex="1"><mxGeometry x="1780" y="231.1" width="120" height="60.31" as="geometry"/></mxCell><mxCell id="QcuihTfElGusrErA9jko-16" value="" style="endArrow=none;html=1;rounded=0;fontSize=20;exitX=0.887;exitY=1.002;exitDx=0;exitDy=0;exitPerimeter=0;" parent="1" source="QcuihTfElGusrErA9jko-1" target="QcuihTfElGusrErA9jko-15" edge="1"><mxGeometry width="50" height="50" relative="1" as="geometry"><mxPoint x="1890" y="210.00000000000023" as="sourcePoint"/><mxPoint x="1666.67" y="609.54" as="targetPoint"/></mxGeometry></mxCell><mxCell id="QcuihTfElGusrErA9jko-17" value="&lt;font style=&quot;font-size: 19px;&quot;&gt;start date&lt;/font&gt;" style="ellipse;whiteSpace=wrap;html=1;fontSize=20;" parent="1" vertex="1"><mxGeometry x="1654" y="238.75" width="111.92" height="45.49" as="geometry"/></mxCell><mxCell id="QcuihTfElGusrErA9jko-19" value="" style="endArrow=none;html=1;rounded=0;fontSize=20;exitX=0.5;exitY=1;exitDx=0;exitDy=0;" parent="1" source="QcuihTfElGusrErA9jko-1" target="QcuihTfElGusrErA9jko-17" edge="1"><mxGeometry width="50" height="50" relative="1" as="geometry"><mxPoint x="1620" y="217.4999999999999" as="sourcePoint"/><mxPoint x="1554.75" y="616.9" as="targetPoint"/></mxGeometry></mxCell><mxCell id="_0a8eVyBEya3YCI4Oc5n-1" value="&lt;font style=&quot;font-size: 20px;&quot;&gt;paid by&lt;/font&gt;" style="shape=rhombus;perimeter=rhombusPerimeter;whiteSpace=wrap;html=1;align=center;" parent="1" vertex="1"><mxGeometry x="547.5" y="250" width="135" height="62.5" as="geometry"/></mxCell><mxCell id="_0a8eVyBEya3YCI4Oc5n-2" value="" style="endArrow=none;html=1;rounded=0;fontSize=20;entryX=0.5;entryY=0;entryDx=0;entryDy=0;exitX=0.5;exitY=1;exitDx=0;exitDy=0;" parent="1" source="jY7_FBdzDZRFW8272Pwl-4" target="_0a8eVyBEya3YCI4Oc5n-1" edge="1"><mxGeometry width="50" height="50" relative="1" as="geometry"><mxPoint x="508.5600000000004" y="186.81999999999994" as="sourcePoint"/><mxPoint x="198.75" y="186.25" as="targetPoint"/></mxGeometry></mxCell><mxCell id="_0a8eVyBEya3YCI4Oc5n-4" value="" style="endArrow=none;html=1;rounded=0;fontSize=20;entryX=0;entryY=0.5;entryDx=0;entryDy=0;exitX=0;exitY=0.5;exitDx=0;exitDy=0;" parent="1" source="_0a8eVyBEya3YCI4Oc5n-1" target="mH6s5tYYB3kWL35VJlXF-21" edge="1"><mxGeometry width="50" height="50" relative="1" as="geometry"><mxPoint x="130" y="155" as="sourcePoint"/><mxPoint x="130" y="-10" as="targetPoint"/></mxGeometry></mxCell><mxCell id="_0a8eVyBEya3YCI4Oc5n-5" value="&lt;font style=&quot;font-size: 19px;&quot;&gt;date&lt;/font&gt;" style="ellipse;whiteSpace=wrap;html=1;fontSize=20;" parent="1" vertex="1"><mxGeometry x="395" y="-114.87" width="84.37" height="36.25" as="geometry"/></mxCell><mxCell id="_0a8eVyBEya3YCI4Oc5n-6" value="" style="endArrow=none;html=1;rounded=0;fontSize=20;entryX=0;entryY=1;entryDx=0;entryDy=0;exitX=1;exitY=0;exitDx=0;exitDy=0;" parent="1" source="gBu2YltLKyA2vqqV_IaL-10" target="_0a8eVyBEya3YCI4Oc5n-5" edge="1"><mxGeometry width="50" height="50" relative="1" as="geometry"><mxPoint x="90.005" y="150.755" as="sourcePoint"/><mxPoint x="-62.069999999999936" y="34.669999999999966" as="targetPoint"/></mxGeometry></mxCell><mxCell id="_0a8eVyBEya3YCI4Oc5n-7" value="&lt;font style=&quot;font-size: 14px;&quot;&gt;&lt;b&gt;(1,1)&lt;/b&gt;&lt;/font&gt;" style="text;html=1;align=center;verticalAlign=middle;resizable=0;points=[];autosize=1;strokeColor=none;fillColor=none;" parent="1" vertex="1"><mxGeometry x="450" y="-370" width="50" height="30" as="geometry"/></mxCell><mxCell id="_0a8eVyBEya3YCI4Oc5n-8" value="&lt;font style=&quot;font-size: 14px;&quot;&gt;&lt;b&gt;(0,N)&lt;/b&gt;&lt;/font&gt;" style="text;html=1;align=center;verticalAlign=middle;resizable=0;points=[];autosize=1;strokeColor=none;fillColor=none;" parent="1" vertex="1"><mxGeometry x="70" y="-140" width="50" height="30" as="geometry"/></mxCell><mxCell id="_0a8eVyBEya3YCI4Oc5n-9" value="&lt;font style=&quot;font-size: 14px;&quot;&gt;&lt;b&gt;(1,N)&lt;/b&gt;&lt;/font&gt;" style="text;html=1;align=center;verticalAlign=middle;resizable=0;points=[];autosize=1;strokeColor=none;fillColor=none;" parent="1" vertex="1"><mxGeometry x="-10" y="-110" width="50" height="30" as="geometry"/></mxCell><mxCell id="_0a8eVyBEya3YCI4Oc5n-10" value="&lt;font style=&quot;font-size: 14px;&quot;&gt;&lt;b&gt;(1,1)&lt;/b&gt;&lt;/font&gt;" style="text;html=1;align=center;verticalAlign=middle;resizable=0;points=[];autosize=1;strokeColor=none;fillColor=none;" parent="1" vertex="1"><mxGeometry x="-282" y="-110" width="50" height="30" as="geometry"/></mxCell><mxCell id="_0a8eVyBEya3YCI4Oc5n-11" value="&lt;font style=&quot;font-size: 14px;&quot;&gt;&lt;b&gt;(1,N)&lt;/b&gt;&lt;/font&gt;" style="text;html=1;align=center;verticalAlign=middle;resizable=0;points=[];autosize=1;strokeColor=none;fillColor=none;" parent="1" vertex="1"><mxGeometry x="120" y="-20" width="50" height="30" as="geometry"/></mxCell><mxCell id="_0a8eVyBEya3YCI4Oc5n-12" value="&lt;font style=&quot;font-size: 14px;&quot;&gt;&lt;b&gt;(1,1)&lt;/b&gt;&lt;/font&gt;" style="text;html=1;align=center;verticalAlign=middle;resizable=0;points=[];autosize=1;strokeColor=none;fillColor=none;" parent="1" vertex="1"><mxGeometry x="113.5" y="217.5" width="50" height="30" as="geometry"/></mxCell><mxCell id="_0a8eVyBEya3YCI4Oc5n-14" value="&lt;font style=&quot;font-size: 14px;&quot;&gt;&lt;b&gt;(0,N)&lt;/b&gt;&lt;/font&gt;" style="text;html=1;align=center;verticalAlign=middle;resizable=0;points=[];autosize=1;strokeColor=none;fillColor=none;" parent="1" vertex="1"><mxGeometry x="207.5" y="254.24" width="50" height="30" as="geometry"/></mxCell><mxCell id="_0a8eVyBEya3YCI4Oc5n-21" value="&lt;font style=&quot;font-size: 19px;&quot;&gt;total&lt;/font&gt;" style="ellipse;whiteSpace=wrap;html=1;fontSize=20;" parent="1" vertex="1"><mxGeometry x="492.5" y="30" width="110" height="45.14" as="geometry"/></mxCell><mxCell id="_0a8eVyBEya3YCI4Oc5n-22" value="" style="endArrow=none;html=1;rounded=0;fontSize=20;exitX=0.25;exitY=1;exitDx=0;exitDy=0;entryX=0.5;entryY=0;entryDx=0;entryDy=0;" parent="1" source="jY7_FBdzDZRFW8272Pwl-4" target="_0a8eVyBEya3YCI4Oc5n-21" edge="1"><mxGeometry width="50" height="50" relative="1" as="geometry"><mxPoint x="535.8400000000001" y="344.9999999999999" as="sourcePoint"/><mxPoint x="366.6700000000001" y="287.17999999999995" as="targetPoint"/></mxGeometry></mxCell><mxCell id="_0a8eVyBEya3YCI4Oc5n-24" value="&lt;font style=&quot;font-size: 14px;&quot;&gt;&lt;b&gt;(1,1)&lt;/b&gt;&lt;/font&gt;" style="text;html=1;align=center;verticalAlign=middle;resizable=0;points=[];autosize=1;strokeColor=none;fillColor=none;" parent="1" vertex="1"><mxGeometry x="610" y="-20" width="50" height="30" as="geometry"/></mxCell><mxCell id="_0a8eVyBEya3YCI4Oc5n-25" value="&lt;font style=&quot;font-size: 14px;&quot;&gt;&lt;b&gt;(1,N)&lt;/b&gt;&lt;/font&gt;" style="text;html=1;align=center;verticalAlign=middle;resizable=0;points=[];autosize=1;strokeColor=none;fillColor=none;" parent="1" vertex="1"><mxGeometry x="687.5" y="-80" width="50" height="30" as="geometry"/></mxCell><mxCell id="_0a8eVyBEya3YCI4Oc5n-26" value="&lt;font style=&quot;font-size: 14px;&quot;&gt;&lt;b&gt;(0,N)&lt;/b&gt;&lt;/font&gt;" style="text;html=1;align=center;verticalAlign=middle;resizable=0;points=[];autosize=1;strokeColor=none;fillColor=none;" parent="1" vertex="1"><mxGeometry x="985" y="-80" width="50" height="30" as="geometry"/></mxCell><mxCell id="_0a8eVyBEya3YCI4Oc5n-27" value="&lt;font style=&quot;font-size: 14px;&quot;&gt;&lt;b&gt;(0,N)&lt;/b&gt;&lt;/font&gt;" style="text;html=1;align=center;verticalAlign=middle;resizable=0;points=[];autosize=1;strokeColor=none;fillColor=none;" parent="1" vertex="1"><mxGeometry x="200" y="-80" width="50" height="30" as="geometry"/></mxCell><mxCell id="_0a8eVyBEya3YCI4Oc5n-30" value="&lt;font style=&quot;font-size: 14px;&quot;&gt;&lt;b&gt;(1,1)&lt;/b&gt;&lt;/font&gt;" style="text;html=1;align=center;verticalAlign=middle;resizable=0;points=[];autosize=1;strokeColor=none;fillColor=none;" parent="1" vertex="1"><mxGeometry x="492.5" y="-80" width="50" height="30" as="geometry"/></mxCell><mxCell id="_0a8eVyBEya3YCI4Oc5n-32" value="&lt;font style=&quot;font-size: 14px;&quot;&gt;&lt;b&gt;(1,1)&lt;/b&gt;&lt;/font&gt;" style="text;html=1;align=center;verticalAlign=middle;resizable=0;points=[];autosize=1;strokeColor=none;fillColor=none;" parent="1" vertex="1"><mxGeometry x="695" y="-370" width="50" height="30" as="geometry"/></mxCell><mxCell id="_0a8eVyBEya3YCI4Oc5n-33" value="&lt;font style=&quot;font-size: 14px;&quot;&gt;&lt;b&gt;(0,N)&lt;/b&gt;&lt;/font&gt;" style="text;html=1;align=center;verticalAlign=middle;resizable=0;points=[];autosize=1;strokeColor=none;fillColor=none;" parent="1" vertex="1"><mxGeometry x="1060" y="-125" width="50" height="30" as="geometry"/></mxCell><mxCell id="_0a8eVyBEya3YCI4Oc5n-34" value="&lt;font style=&quot;font-size: 14px;&quot;&gt;&lt;b&gt;(1,N)&lt;/b&gt;&lt;/font&gt;" style="text;html=1;align=center;verticalAlign=middle;resizable=0;points=[];autosize=1;strokeColor=none;fillColor=none;" parent="1" vertex="1"><mxGeometry x="1120" y="-125" width="50" height="30" as="geometry"/></mxCell><mxCell id="_0a8eVyBEya3YCI4Oc5n-35" value="&lt;font style=&quot;font-size: 14px;&quot;&gt;&lt;b&gt;(1,1)&lt;/b&gt;&lt;/font&gt;" style="text;html=1;align=center;verticalAlign=middle;resizable=0;points=[];autosize=1;strokeColor=none;fillColor=none;" parent="1" vertex="1"><mxGeometry x="1490" y="-292.5" width="50" height="30" as="geometry"/></mxCell><mxCell id="_0a8eVyBEya3YCI4Oc5n-37" value="&lt;font style=&quot;font-size: 14px;&quot;&gt;&lt;b&gt;(1,1)&lt;/b&gt;&lt;/font&gt;" style="text;html=1;align=center;verticalAlign=middle;resizable=0;points=[];autosize=1;strokeColor=none;fillColor=none;" parent="1" vertex="1"><mxGeometry x="1060" y="-20" width="50" height="30" as="geometry"/></mxCell><mxCell id="_0a8eVyBEya3YCI4Oc5n-39" value="&lt;font style=&quot;font-size: 14px;&quot;&gt;&lt;b&gt;(1,N)&lt;/b&gt;&lt;/font&gt;" style="text;html=1;align=center;verticalAlign=middle;resizable=0;points=[];autosize=1;strokeColor=none;fillColor=none;" parent="1" vertex="1"><mxGeometry x="1060" y="390" width="50" height="30" as="geometry"/></mxCell><mxCell id="_0a8eVyBEya3YCI4Oc5n-40" value="&lt;font style=&quot;font-size: 14px;&quot;&gt;&lt;b&gt;(0,N)&lt;/b&gt;&lt;/font&gt;" style="text;html=1;align=center;verticalAlign=middle;resizable=0;points=[];autosize=1;strokeColor=none;fillColor=none;" parent="1" vertex="1"><mxGeometry x="1190" y="-35" width="50" height="30" as="geometry"/></mxCell><mxCell id="_0a8eVyBEya3YCI4Oc5n-41" value="&lt;font style=&quot;font-size: 14px;&quot;&gt;&lt;b&gt;(1,N)&lt;/b&gt;&lt;/font&gt;" style="text;html=1;align=center;verticalAlign=middle;resizable=0;points=[];autosize=1;strokeColor=none;fillColor=none;" parent="1" vertex="1"><mxGeometry x="1540" y="145" width="50" height="30" as="geometry"/></mxCell><mxCell id="_0a8eVyBEya3YCI4Oc5n-42" value="&lt;font style=&quot;font-size: 14px;&quot;&gt;&lt;b&gt;(1,N)&lt;/b&gt;&lt;/font&gt;" style="text;html=1;align=center;verticalAlign=middle;resizable=0;points=[];autosize=1;strokeColor=none;fillColor=none;" parent="1" vertex="1"><mxGeometry x="1190" y="-78.62" width="50" height="30" as="geometry"/></mxCell><mxCell id="_0a8eVyBEya3YCI4Oc5n-43" value="&lt;font style=&quot;font-size: 14px;&quot;&gt;&lt;b&gt;(0,N)&lt;/b&gt;&lt;/font&gt;" style="text;html=1;align=center;verticalAlign=middle;resizable=0;points=[];autosize=1;strokeColor=none;fillColor=none;" parent="1" vertex="1"><mxGeometry x="1530" y="-78.62" width="50" height="30" as="geometry"/></mxCell><mxCell id="_0a8eVyBEya3YCI4Oc5n-44" value="&lt;font size=&quot;1&quot; style=&quot;&quot;&gt;&lt;u style=&quot;font-size: 18px;&quot;&gt;payment_code&lt;/u&gt;&lt;/font&gt;" style="ellipse;whiteSpace=wrap;html=1;fontSize=20;" parent="1" vertex="1"><mxGeometry x="-115" y="178.75" width="140" height="61.25" as="geometry"/></mxCell><mxCell id="_0a8eVyBEya3YCI4Oc5n-45" value="" style="endArrow=none;html=1;rounded=0;fontSize=20;entryX=1;entryY=1;entryDx=0;entryDy=0;exitX=1;exitY=0.75;exitDx=0;exitDy=0;" parent="1" source="mH6s5tYYB3kWL35VJlXF-21" target="_0a8eVyBEya3YCI4Oc5n-44" edge="1"><mxGeometry width="50" height="50" relative="1" as="geometry"><mxPoint x="50.00000000000023" y="187.5" as="sourcePoint"/><mxPoint x="-149.5" y="291.25" as="targetPoint"/></mxGeometry></mxCell><mxCell id="_0a8eVyBEya3YCI4Oc5n-46" value="&lt;font style=&quot;font-size: 19px;&quot;&gt;description&lt;/font&gt;" style="ellipse;whiteSpace=wrap;html=1;fontSize=20;" parent="1" vertex="1"><mxGeometry x="1700" y="-374.74" width="110" height="60" as="geometry"/></mxCell><mxCell id="_0a8eVyBEya3YCI4Oc5n-47" value="" style="endArrow=none;html=1;rounded=0;fontSize=20;entryX=0;entryY=1;entryDx=0;entryDy=0;exitX=0.723;exitY=-0.012;exitDx=0;exitDy=0;exitPerimeter=0;" parent="1" source="95bkAQWqYfKbXMDTL2cX-6" target="_0a8eVyBEya3YCI4Oc5n-46" edge="1"><mxGeometry width="50" height="50" relative="1" as="geometry"><mxPoint x="1690" y="-310" as="sourcePoint"/><mxPoint x="1486.67" y="-161.70000000000005" as="targetPoint"/></mxGeometry></mxCell><mxCell id="95bkAQWqYfKbXMDTL2cX-1" value="&lt;font style=&quot;font-size: 19px;&quot;&gt;&lt;u&gt;review_code&lt;/u&gt;&lt;/font&gt;" style="ellipse;whiteSpace=wrap;html=1;fontSize=20;" parent="1" vertex="1"><mxGeometry x="500" y="-295.62" width="118.5" height="58.76" as="geometry"/></mxCell><mxCell id="95bkAQWqYfKbXMDTL2cX-2" value="" style="endArrow=none;html=1;rounded=0;fontSize=20;exitX=0.25;exitY=1;exitDx=0;exitDy=0;entryX=0.5;entryY=0;entryDx=0;entryDy=0;" parent="1" source="jY7_FBdzDZRFW8272Pwl-2" target="95bkAQWqYfKbXMDTL2cX-1" edge="1"><mxGeometry width="50" height="50" relative="1" as="geometry"><mxPoint x="585.1300000000001" y="-231.73000000000002" as="sourcePoint"/><mxPoint x="487.9200000000001" y="-110.46000000000004" as="targetPoint"/></mxGeometry></mxCell><mxCell id="95bkAQWqYfKbXMDTL2cX-3" value="&lt;font style=&quot;font-size: 19px;&quot;&gt;&lt;u&gt;variant_name&lt;/u&gt;&lt;/font&gt;" style="ellipse;whiteSpace=wrap;html=1;fontSize=20;" parent="1" vertex="1"><mxGeometry x="1480" y="-380" width="135" height="50.26" as="geometry"/></mxCell><mxCell id="95bkAQWqYfKbXMDTL2cX-4" value="" style="endArrow=none;html=1;rounded=0;fontSize=20;entryX=1;entryY=1;entryDx=0;entryDy=0;exitX=0.25;exitY=0;exitDx=0;exitDy=0;" parent="1" source="95bkAQWqYfKbXMDTL2cX-6" target="95bkAQWqYfKbXMDTL2cX-3" edge="1"><mxGeometry width="50" height="50" relative="1" as="geometry"><mxPoint x="1495" y="-318.25" as="sourcePoint"/><mxPoint x="1311.67" y="-178.71000000000004" as="targetPoint"/></mxGeometry></mxCell><mxCell id="95bkAQWqYfKbXMDTL2cX-6" value="" style="rounded=0;whiteSpace=wrap;html=1;gradientColor=default;fillColor=none;" parent="1" vertex="1"><mxGeometry x="1570" y="-309.99" width="180" height="87.5" as="geometry"/></mxCell><mxCell id="95bkAQWqYfKbXMDTL2cX-8" value="" style="rhombus;whiteSpace=wrap;html=1;fillColor=none;gradientColor=default;" parent="1" vertex="1"><mxGeometry x="1300" y="-310.62" width="180" height="90" as="geometry"/></mxCell><mxCell id="95bkAQWqYfKbXMDTL2cX-9" value="" style="rhombus;whiteSpace=wrap;html=1;fillColor=none;gradientColor=default;" parent="1" vertex="1"><mxGeometry x="1010" y="137.5" width="200" height="110" as="geometry"/></mxCell><mxCell id="95bkAQWqYfKbXMDTL2cX-10" value="" style="rounded=0;whiteSpace=wrap;html=1;gradientColor=default;fillColor=none;" parent="1" vertex="1"><mxGeometry x="1037.5" y="-85" width="145" height="60" as="geometry"/></mxCell><mxCell id="IGbe_3NgrcxFfoLTGQ70-1" value="&lt;span style=&quot;font-size: 19px;&quot;&gt;price&lt;/span&gt;" style="ellipse;whiteSpace=wrap;html=1;fontSize=20;" parent="1" vertex="1"><mxGeometry x="760" y="-15" width="90" height="50" as="geometry"/></mxCell><mxCell id="IGbe_3NgrcxFfoLTGQ70-2" value="" style="endArrow=none;html=1;rounded=0;fontSize=20;entryX=0.629;entryY=0.024;entryDx=0;entryDy=0;exitX=0.299;exitY=0.809;exitDx=0;exitDy=0;exitPerimeter=0;entryPerimeter=0;" parent="1" source="gBu2YltLKyA2vqqV_IaL-13" target="IGbe_3NgrcxFfoLTGQ70-1" edge="1"><mxGeometry width="50" height="50" relative="1" as="geometry"><mxPoint x="848.6300000000001" y="-76.15000000000009" as="sourcePoint"/><mxPoint x="822.50173608971" y="-113.1354166783401" as="targetPoint"/></mxGeometry></mxCell><mxCell id="BWgO8e7EnOHFoBr8jHQ5-1" value="&lt;span style=&quot;font-size: 19px;&quot;&gt;SKU&lt;br&gt;&lt;/span&gt;" style="ellipse;whiteSpace=wrap;html=1;fontSize=20;" parent="1" vertex="1"><mxGeometry x="1800" y="-286.24" width="100" height="55" as="geometry"/></mxCell><mxCell id="BWgO8e7EnOHFoBr8jHQ5-2" value="" style="endArrow=none;html=1;rounded=0;exitX=0.994;exitY=0.402;exitDx=0;exitDy=0;entryX=0.017;entryY=0.341;entryDx=0;entryDy=0;entryPerimeter=0;exitPerimeter=0;" parent="1" source="95bkAQWqYfKbXMDTL2cX-6" target="BWgO8e7EnOHFoBr8jHQ5-1" edge="1"><mxGeometry width="50" height="50" relative="1" as="geometry"><mxPoint x="1750" y="-262.5" as="sourcePoint"/><mxPoint x="1740" y="-332.5" as="targetPoint"/></mxGeometry></mxCell></root></mxGraphModel></diagram></mxfile>